<svg xmlns="http://www.w3.org/2000/svg" xmlns:xlink="http://www.w3.org/1999/xlink" width="2000" zoomAndPan="magnify" viewBox="0 0 1500 1499.999933" height="2000" preserveAspectRatio="xMidYMid meet" version="1.0"><defs><clipPath id="id1"><path d="M 65.570312 65.570312 L 1434.320312 65.570312 L 1434.320312 1434.320312 L 65.570312 1434.320312 Z M 65.570312 65.570312 " clip-rule="nonzero"/></clipPath><clipPath id="id2"><path d="M 458.640625 373.242188 L 1041.390625 373.242188 L 1041.390625 1126.992188 L 458.640625 1126.992188 Z M 458.640625 373.242188 " clip-rule="nonzero"/></clipPath></defs><rect x="-150" width="1800" fill="#ffffff" y="-149.999993" height="1799.99992" fill-opacity="1"/><rect x="-150" width="1800" fill="#ffffff" y="-149.999993" height="1799.99992" fill-opacity="1"/><g clip-path="url(#id1)"><path fill="#30b8e2" d="M 749.945312 65.570312 C 371.976562 65.570312 65.570312 371.976562 65.570312 749.945312 C 65.570312 1127.914062 371.976562 1434.320312 749.945312 1434.320312 C 1127.914062 1434.320312 1434.320312 1127.914062 1434.320312 749.945312 C 1434.320312 371.976562 1127.914062 65.570312 749.945312 65.570312 " fill-opacity="1" fill-rule="nonzero"/></g><path fill="#30b8e2" d="M 939.617188 643.3125 L 934.894531 643.3125 L 934.894531 746.625 L 910.058594 746.625 L 910.058594 630.894531 C 910.058594 615.742188 896.316406 610.097656 887.65625 610.097656 L 832.050781 610.097656 L 832.050781 712.136719 L 807.214844 712.136719 L 807.214844 597.675781 C 807.214844 587.675781 793.332031 575.015625 784.828125 575.015625 L 728.683594 575.015625 L 728.683594 712.140625 L 703.855469 712.140625 L 703.855469 403.691406 L 625.847656 402.160156 L 625.847656 781.503906 L 601.007812 781.503906 L 601.007812 771.65625 L 599.582031 770.265625 C 577.144531 748.421875 539.378906 714.703125 527.289062 711.347656 L 526.660156 711.175781 L 488.203125 711.363281 L 488.203125 762.871094 L 489.113281 764.117188 C 601.507812 917.453125 657.472656 1055.992188 671.953125 1094.804688 L 673.097656 1097.875 L 927.40625 1097.875 L 928.148438 1094.058594 C 940.039062 1033.003906 999.667969 880.515625 1011.5 850.5625 L 1011.832031 849.726562 L 1011.832031 716.859375 C 1011.820312 690.742188 965.253906 643.3125 939.617188 643.3125 Z M 939.617188 643.3125 " fill-opacity="1" fill-rule="nonzero"/><g clip-path="url(#id2)"><path fill="#ffffff" d="M 939.617188 613.753906 L 936.4375 613.753906 C 928.867188 592.761719 908.125 580.542969 887.65625 580.542969 L 832.824219 580.542969 C 824.59375 561.515625 804.339844 545.457031 784.828125 545.457031 L 733.402344 545.457031 L 733.402344 408.320312 C 733.402344 386.695312 719.75 372.699219 698.597656 372.699219 L 630.574219 372.699219 C 608.242188 372.699219 596.433594 390.976562 596.289062 409.117188 L 596.289062 726.492188 C 563.65625 696.929688 540.589844 681.765625 527.730469 681.765625 L 492.117188 681.765625 C 486.386719 681.800781 476.277344 681.574219 467.941406 689.742188 C 461.6875 695.902344 458.640625 704.808594 458.640625 716.855469 L 458.640625 772.566406 L 461.992188 777.113281 C 592.039062 953.121094 647.539062 1114.175781 648.078125 1115.800781 L 652.019531 1127.425781 L 955.679688 1127.425781 L 955.679688 1110.3125 C 955.679688 1081.828125 1007.492188 940.765625 1040.171875 858.464844 L 1041.386719 716.875 C 1041.390625 674.484375 981.464844 613.753906 939.617188 613.753906 Z M 1007.101562 848.808594 C 995.28125 878.746094 935.539062 1031.414062 923.519531 1093.144531 L 676.363281 1093.144531 C 661.300781 1052.769531 605.292969 914.632812 492.914062 761.316406 L 492.914062 716.851562 C 492.914062 716.589844 492.914062 716.3125 492.914062 716.046875 L 526.015625 715.886719 C 535.554688 718.53125 568.867188 746.953125 596.28125 773.621094 L 596.28125 786.210938 L 630.5625 786.210938 L 630.5625 406.988281 L 699.128906 408.332031 L 699.128906 716.871094 L 733.410156 716.871094 L 733.410156 579.742188 L 784.835938 579.742188 C 790.933594 579.742188 802.503906 590.445312 802.503906 597.6875 L 802.503906 716.867188 L 836.78125 716.867188 L 836.78125 614.828125 L 887.664062 614.828125 C 892.585938 614.828125 905.347656 617.707031 905.347656 630.90625 L 905.347656 751.363281 L 939.625 751.363281 L 939.625 648.046875 C 962.949219 648.046875 1007.105469 693.082031 1007.105469 716.882812 Z M 1007.101562 848.808594 " fill-opacity="1" fill-rule="nonzero"/></g></svg>